<svg width="79" height="79" viewBox="0 0 79 79" fill="none" xmlns="http://www.w3.org/2000/svg">
<path d="M6.3261 57.0438C13.9332 66.6899 20.0832 63.383 28.9928 69.0365C34.0699 72.2569 37.5805 78.9681 44.722 78.4404C50.093 78.0424 54.977 73.9158 57.3847 69.2398C58.5091 67.0554 58.3546 63.7615 59.5799 61.7392C62.1098 57.5672 66.2857 56.5485 70.2834 53.871C74.8906 50.7825 78.6351 46.8181 78.3368 40.3102C78.0472 33.9624 73.058 29.4638 71.307 23.5507C69.4744 17.3607 71.4443 12.5074 65.2342 8.16884C60.2945 4.71917 54.7453 6.75653 49.6102 5.48696C36.484 2.24493 29.3125 -5.10427 19.448 8.23372C15.3215 13.8137 13.4568 20.8753 9.02344 25.9298C1.14384 34.9205 -3.76588 44.2465 6.3261 57.0438Z" fill="#EDEFFF" fill-opacity="0.51"/>
</svg>
