<svg width="375" height="303" viewBox="0 0 375 303" fill="none" xmlns="http://www.w3.org/2000/svg">
<path class="mother-line" d="M1 302.211C127 294.211 189.115 290.92 212.5 295.211C230.518 272.235 231.43 235.879 232.5 214.711C233.57 193.543 224.5 235.211 230.5 240.711C236.5 246.211 215.285 247.876 210 232.211C210.825 226.73 215 223.211 215 223.211C215 223.211 215.088 215.206 215 213.211C214.912 211.216 221.93 214.811 222 213.211C212.784 213.758 208.597 186.262 204 194.711C199.403 203.16 247.734 215.721 255 201.711C243.539 208.704 238.544 213.956 236.5 229.711C239.822 233.7 233 225.711 246.5 236.711C260 247.711 266.601 244.701 255 227.211C254.528 219.488 254.103 215.324 266 194.711L281 178.211C290.444 163.211 294.523 157.776 299.5 153.711C340.289 117.597 307.754 96.3649 299.5 100.211C291.246 104.057 280.532 129.279 260 140.711C261.537 147.192 263.498 149.236 268.5 150.711L263.5 155.711C267.054 153.417 273.5 153.211 274 153.711C274.5 154.211 272 155.711 272 155.711C275.667 155.545 282.196 156.569 277.5 157.711C271.671 159.129 272.095 159.152 278.5 161.211C283.205 164.371 279.308 164.177 274.5 164.711C279.293 166.88 277.739 167.634 272.5 168.711C277.443 170.169 275.003 170.489 267 170.711C259.915 170.105 261.786 153.586 261.5 162.711C261.214 171.836 239.481 138.587 240 128.211C240.519 117.835 253.938 156.261 250 164.711C246.062 173.162 243.544 173.682 238 175.211C233.362 183.13 229.993 185.298 224 189.211H206C192.073 177.112 189.189 171.544 188.5 162.711C190.212 157.334 191.319 154.512 196.5 153.711L204 148.211L204.375 149.211M204.375 149.211C225.903 143.968 219.889 149.689 208.5 160.211C208.5 160.211 208 160.711 217 164.711C226 168.711 208.451 169.167 215 170.711C221.549 172.256 231.388 179.077 217 178.211C202.612 177.345 216 184.711 216 184.711C206.09 182.465 200.845 180.096 193.5 168.711C193.658 160.627 196.48 156.408 204.375 149.211ZM204.375 149.211C210.769 141.702 214.25 137.5 218 130.211C230.512 112.401 237.187 111.118 249 111.211C246.707 41.7455 303 90.7112 296 96.2112C289 101.711 276.5 94.7112 276.5 94.7112C268.38 91.418 264.046 91.916 257 100.211L251.5 94.7112C247.253 120.092 260.281 89.4749 255 107.711C249.719 125.947 288.719 141.513 296 100.211C297.413 87.7167 293.425 81.3635 285 70.2112C280.03 73.1419 276.975 74.2522 271 75.2112C266.58 75.2311 265.939 73.3161 264.5 70.2112L263.5 63.7112C260.644 61.385 264 62.2112 264.5 60.7112C265 59.2112 264.719 60.3835 261.5 59.2112C261.601 55.8797 262.238 55.0207 263.5 53.7112C259.725 51.97 258.755 50.4642 261.5 45.7112C267.782 40.225 267.661 36.6059 264.5 29.7112C264.043 24.8081 264.556 22.7945 266 19.7112C291.143 1.25108 309.785 -3.34282 330 26.2112C332.22 42.5992 328.293 49.7954 321.5 62.7112C316.884 75.226 315.67 81.464 323 87.2112C365.97 116.889 349.022 126.491 331 145.711C338.96 134.356 341.023 125.585 329.5 94.7112C339.988 53.3867 344.091 32.6575 335 18.2112C322.215 -1.29974 314.536 1.29336 301 1.71116C279.271 -0.468091 275.281 2.59532 267.5 7.71116C252.166 25.3962 254.56 30.4654 259.5 39.2112C261.573 34.2676 290.198 22.2915 288.5 11.2112C286.802 0.130816 294.458 56.3417 311 52.2112C299.399 67.0908 301.468 75.1353 313 89.2112C345.711 118.328 329.819 145.999 299.5 203.211C297.175 252.787 309.675 237.354 317 256.711L324 293.211L375 295.211" stroke="white"/>
</svg>
